<?xml version="1.0" encoding="UTF-8"?>
<!DOCTYPE svg PUBLIC "-//W3C//DTD SVG 1.1//EN" "http://www.w3.org/Graphics/SVG/1.1/DTD/svg11.dtd">
<svg xmlns="http://www.w3.org/2000/svg" version="1.1" width="24px" height="284px" style="shape-rendering:geometricPrecision; text-rendering:geometricPrecision; image-rendering:optimizeQuality; fill-rule:evenodd; clip-rule:evenodd" xmlns:xlink="http://www.w3.org/1999/xlink">
<g><path style="opacity:0.988" fill="#6f6f6f" d="M 10.5,5.5 C 11.4959,5.41423 12.3292,5.74756 13,6.5C 13.5,98.4994 13.6667,190.499 13.5,282.5C 12.1667,282.5 10.8333,282.5 9.5,282.5C 9.16934,190.096 9.50267,97.7628 10.5,5.5 Z"/></g>
<g><path style="opacity:0.848" fill="#6a6a6a" d="M 23.5,10.5 C 23.5,11.1667 23.5,11.8333 23.5,12.5C 18.9503,11.8033 15.617,9.30326 13.5,5C 14.2752,3.77049 15.2752,3.43716 16.5,4C 18.9486,6.19229 21.282,8.35896 23.5,10.5 Z"/></g>
<g><path style="opacity:0.894" fill="#6d6d6d" d="M 2.5,7.5 C 7.38994,7.63916 7.72328,9.13916 3.5,12C 2.55198,12.4828 1.55198,12.6495 0.5,12.5C 0.391506,10.4862 1.05817,8.81953 2.5,7.5 Z"/></g>
</svg>
